<?xml version="1.0" standalone="no"?>
<!DOCTYPE svg PUBLIC "-//W3C//DTD SVG 20010904//EN"
 "http://www.w3.org/TR/2001/REC-SVG-20010904/DTD/svg10.dtd">
<svg version="1.0" xmlns="http://www.w3.org/2000/svg"
 width="700.000000pt" height="700.000000pt" viewBox="0 0 700.000000 700.000000"
 preserveAspectRatio="xMidYMid meet">
<metadata>
Created by potrace 1.14, written by Peter Selinger 2001-2017
</metadata>
<g transform="translate(0.000000,700.000000) scale(0.100000,-0.100000)"
fill="#000000" stroke="none">
<path d="M2237 6564 c-1 -1 -24 -4 -52 -8 -161 -20 -300 -71 -433 -160 -90
-59 -217 -185 -373 -367 -26 -30 -57 -66 -70 -80 -13 -14 -53 -58 -89 -99
-200 -224 -213 -237 -283 -283 -95 -63 -211 -95 -359 -98 -70 -2 -80 -4 -106
-30 -45 -44 -49 -102 -16 -234 32 -128 150 -272 273 -335 111 -56 148 -60 505
-60 l327 0 24 -25 c14 -13 25 -35 25 -49 0 -20 -130 -327 -258 -606 -11 -25
-48 -108 -82 -185 -34 -77 -80 -178 -102 -225 -301 -637 -395 -861 -453 -1074
-124 -463 -60 -944 180 -1352 26 -43 51 -80 56 -82 5 -2 9 -8 9 -14 0 -6 23
-40 52 -77 176 -225 400 -406 638 -517 75 -35 221 -92 251 -98 13 -2 31 -7 39
-10 8 -3 29 -7 45 -10 17 -2 50 -9 75 -14 136 -32 245 -35 1240 -35 840 -1
1072 3 1160 17 14 3 59 10 100 16 234 36 517 134 745 259 291 159 552 379 744
628 93 121 94 122 154 220 197 320 315 674 353 1053 10 103 12 1174 2 1229
-18 102 -83 185 -184 236 -52 26 -69 30 -144 30 -102 -1 -153 -22 -239 -101
-117 -107 -264 -195 -410 -245 -159 -56 -70 -53 -1598 -56 -777 -2 -1413 -1
-1413 1 0 3 36 88 81 188 44 101 101 230 126 288 25 58 57 130 70 160 14 30
32 71 40 90 29 66 51 115 98 220 232 516 257 580 285 706 23 105 25 266 5 370
-40 213 -126 377 -274 525 -187 186 -413 283 -684 292 -43 2 -79 2 -80 1z"/>
</g>
</svg>
